<svg xmlns="http://www.w3.org/2000/svg" viewBox="0 0 200.93 43.37"><defs><style>.a{fill:#4d46dd;}</style></defs><path class="a" d="M37.52,74.87a5.08,5.08,0,0,1-3.2-1.36l-6.23-5.36c-.39-.3-.54-.41-.83-.41a3,3,0,0,0-.84.17,8.45,8.45,0,0,1-3.86.92A17.42,17.42,0,1,1,39.89,51.46a17.19,17.19,0,0,1-4.08,11.21c-.53.66-.55,1.12-.07,1.57l3.73,3.34a5,5,0,0,1,1.83,3.47,3.46,3.46,0,0,1-1.1,2.64A3.81,3.81,0,0,1,37.52,74.87Zm-15-32.63a9.15,9.15,0,1,0,9.12,9.22A9.18,9.18,0,0,0,22.52,42.24Z" transform="translate(-5.1 -31.5)"/><path class="a" d="M34.48,73.32,28.26,68c-.63-.48-.82-.62-1.92-.29a8.23,8.23,0,0,1-3.77.91,17.08,17.08,0,1,1,13-6.07c-.57.72-.67,1.34,0,1.91l3.74,3.35c1.57,1.34,2.63,3.87.71,5.74C38.4,75.09,36.44,74.94,34.48,73.32ZM31.89,51.46a9.38,9.38,0,1,0-18.75,0,9.38,9.38,0,0,0,18.75,0Z" transform="translate(-5.1 -31.5)"/><path class="a" d="M56.38,68.83A13.14,13.14,0,0,1,43.17,55.48V45.24a4,4,0,1,1,7.91,0V55.48a5.28,5.28,0,1,0,10.55,0V45.24a4,4,0,1,1,7.91,0V55.48A13.11,13.11,0,0,1,56.38,68.83Z" transform="translate(-5.1 -31.5)"/><path class="a" d="M43.42,55.48V45.24a3.71,3.71,0,1,1,7.41,0V55.48a5.53,5.53,0,1,0,11.05,0V45.24a3.71,3.71,0,1,1,7.41,0V55.48a12.94,12.94,0,1,1-25.87,0Z" transform="translate(-5.1 -31.5)"/><path class="a" d="M98,69.69a5.49,5.49,0,0,1-4.35-2.34c-.42-.8-.73-.87-1-.87a2.18,2.18,0,0,0-.42,0c-.27.16-.56.35-.85.55-1.23.84-2.49,1.7-6.31,1.7-6.35,0-12.59-6.9-12.59-13.92a13.72,13.72,0,0,1,27.43,0v4a5.92,5.92,0,0,0,1.28,4.23,3.76,3.76,0,0,1,1,2.61A4,4,0,0,1,98,69.69ZM86.22,49.22a5.67,5.67,0,0,0-5.68,5.64,5.66,5.66,0,1,0,11.31,0A5.64,5.64,0,0,0,86.22,49.22Z" transform="translate(-5.1 -31.5)"/><path class="a" d="M72.73,54.86a13.47,13.47,0,0,1,26.93,0v4c0,4.64,2.25,4,2.25,6.85,0,3.77-5.07,5.45-8.08,1.53-.58-1.11-1.06-1-1.68-.91-1.67.95-2.44,2.24-7.08,2.24C79,68.53,72.73,62,72.73,54.86Zm19.37,0a5.91,5.91,0,0,0-11.81,0,5.91,5.91,0,1,0,11.81,0Z" transform="translate(-5.1 -31.5)"/><path class="a" d="M109,68.83a3.92,3.92,0,0,1-4-4.12V45.24a3.81,3.81,0,0,1,3.79-4.08c2.09,0,3.5,1.3,3.5,2.5v.73c.08-.09.21-.24.41-.5a7.63,7.63,0,0,1,5.56-2.73,3.84,3.84,0,0,1,3.87,2.77,3.57,3.57,0,0,1-.32,2.68,3.86,3.86,0,0,1-2.44,1.74c-4.17.9-6.46,3.4-6.46,7v9.33A3.89,3.89,0,0,1,109,68.83Z" transform="translate(-5.1 -31.5)"/><path class="a" d="M105.24,64.71V45.24a3.55,3.55,0,0,1,3.54-3.83c2,0,3.25,1.25,3.25,2.25v.77c0,.52.29.38.86-.39a7.33,7.33,0,0,1,5.36-2.63A3.58,3.58,0,0,1,121.88,44a3.28,3.28,0,0,1-2.58,4.11c-4.21.91-6.65,3.49-6.65,7.27v9.33a3.71,3.71,0,1,1-7.41,0Z" transform="translate(-5.1 -31.5)"/><path class="a" d="M143.66,68.83a5.16,5.16,0,0,1-3.54-2.1l-5.46-7.08a.69.69,0,0,0-.46-.28.83.83,0,0,0-.54.34l-1,1a1.39,1.39,0,0,0-.26.88v3.16a4,4,0,1,1-7.91,0V43.66c0-5.22,2.33-9.38,6.4-11.41a8.41,8.41,0,0,1,2.89-.75,3.49,3.49,0,0,1,3.49,2.17c.77,2.09-.32,4.16-3.16,6-1.23.74-1.71,1.86-1.71,4v5.26c0,.27.1.57.29.57a.65.65,0,0,0,.43-.26l5.25-6a4.62,4.62,0,0,1,3.3-2.05,3.54,3.54,0,0,1,2.35.77,3.43,3.43,0,0,1,1.52,2.24,3.72,3.72,0,0,1-.75,2.7l-4.31,5.18c-.71.84-.73,1.23-.09,2.08l6.26,8.23a4.44,4.44,0,0,1,1,3.42,3.39,3.39,0,0,1-1.49,2.29A4.56,4.56,0,0,1,143.66,68.83Z" transform="translate(-5.1 -31.5)"/><path class="a" d="M124.72,64.76V43.66c0-4.54,1.86-9,6.26-11.19a8.11,8.11,0,0,1,2.78-.72,3.26,3.26,0,0,1,3.25,2c.91,2.44-1,4.4-3.06,5.69-1.43.86-1.82,2.25-1.82,4.21v5.26c.05.91.62,1.06,1.15.48l5.26-6a4.29,4.29,0,0,1,3.11-2,3.27,3.27,0,0,1,2.2.72,3,3,0,0,1,.72,4.59l-4.31,5.17a1.57,1.57,0,0,0-.09,2.39l6.26,8.23c1.53,2.05,1.1,4.3-.47,5.35a4.28,4.28,0,0,1-2.3.72,5,5,0,0,1-3.35-2l-5.45-7.08c-.48-.52-.91-.47-1.39,0l-1,1a1.52,1.52,0,0,0-.34,1.05v3.16a3.71,3.71,0,1,1-7.41,0Z" transform="translate(-5.1 -31.5)"/><path class="a" d="M160.21,66.58v-16a2.25,2.25,0,0,1,2.33-2.3,2.17,2.17,0,0,1,2.35,2.3v16a2.21,2.21,0,0,1-2.38,2.29A2.24,2.24,0,0,1,160.21,66.58Z" transform="translate(-5.1 -31.5)"/><path class="a" d="M185.39,71.71l-3.72-3.21c-.38-.29-.49-.38-1.15-.17a5.06,5.06,0,0,1-2.27.54,10.24,10.24,0,1,1,7.83-3.64c-.34.43-.4.8,0,1.14l2.24,2c1,.81,1.58,2.33.43,3.44C187.75,72.77,186.57,72.68,185.39,71.71ZM183.84,58.6a5.62,5.62,0,1,0-11.24,0,5.62,5.62,0,0,0,11.24,0Z" transform="translate(-5.1 -31.5)"/><path class="a" d="M193.94,68.44a2.27,2.27,0,0,1-2.32-2.35V50.57a2.33,2.33,0,0,1,4.65,0V62.5c0,1.06.2,1.49,1.55,1.49h5.91a2.23,2.23,0,1,1,0,4.45Z" transform="translate(-5.1 -31.5)"/></svg>